Coordinates
version=1
nRows=32
nColumns=22
inDegrees=yes

Units are S.I. units (second, meters, Newtons, ...)
If the header above contains a line with 'inDegrees', this indicates whether rotational values are in degrees (yes) or radians (no).

endheader
time	pelvis_tilt	pelvis_list	pelvis_rotation	pelvis_tx	pelvis_ty	pelvis_tz	hip_flexion_r	hip_adduction_r	hip_rotation_r	knee_angle_r	ankle_angle_r	subtalar_angle_r	hip_flexion_l	hip_adduction_l	hip_rotation_l	knee_angle_l	ankle_angle_l	subtalar_angle_l	lumbar_extension	lumbar_bending	lumbar_rotation
      3.43000000	      3.97694505	     -0.22843254	    -32.56808237	      0.78665084	      0.88134271	      0.56049786	     -3.07620095	     -3.68833573	      1.17385995	    -52.01285918	      6.01871285	      1.39021679	     21.02704321	      0.96832673	    -10.90441804	    -25.83062947	      2.66879622	     -2.90976252	     -6.61597243	     -3.33509993	      8.69645438
      3.44000000	      3.98604553	     -0.01951555	    -32.85846337	      0.79311221	      0.88253442	      0.56285537	     -1.45483407	     -4.14542444	      1.29844687	    -54.09119236	      6.48083152	      0.41283659	     20.46189622	      1.24509845	    -11.18966499	    -25.53440181	      3.01280804	     -3.13934988	     -6.70362771	     -3.55526479	      8.70275646
      3.45000000	      4.03919172	      0.13478967	    -33.12584103	      0.79943717	      0.88388034	      0.56518115	      0.02315451	     -4.56903241	      1.38783366	    -55.82662745	      7.30354372	     -0.81735058	     19.82551873	      1.51579709	    -11.42708458	    -25.21179143	      3.33304648	     -3.27396362	     -6.86323122	     -3.74086707	      8.61734628
      3.46000000	      4.07663491	      0.22409134	    -33.36045225	      0.80559663	      0.88531061	      0.56745665	      1.40750804	     -4.90206467	      1.45156505	    -57.21545221	      8.34309346	     -2.31663939	     19.19033608	      1.74063594	    -11.57064974	    -24.90079140	      3.61296195	     -3.43564132	     -7.04554600	     -3.84947428	      8.49977529
      3.47000000	      4.09095882	      0.25006739	    -33.55007594	      0.81160327	      0.88680693	      0.56968732	      2.68889850	     -5.13181297	      1.49096126	    -58.24309750	      9.52273550	     -4.02463353	     18.56212239	      1.91357330	    -11.63219683	    -24.60082710	      3.87586469	     -3.62854909	     -7.24183792	     -3.88119314	      8.32783045
      3.48000000	      4.07617156	      0.21718635	    -33.68995083	      0.81746152	      0.88834196	      0.57187425	      3.86636093	     -5.25430537	      1.50680383	    -58.90883002	     10.76951689	     -5.83870945	     17.94678946	      2.03195202	    -11.61856957	    -24.31128419	      4.13009024	     -3.84810205	     -7.44501094	     -3.83787605	      8.10523357
      3.49000000	      4.03421532	      0.16886729	    -33.79074680	      0.82316564	      0.88986338	      0.57402240	      4.97293558	     -5.31299373	      1.51011021	    -59.23943458	     12.00101915	     -7.60924711	     17.34948883	      2.13416190	    -11.54095100	    -23.99622247	      4.35699911	     -4.09318894	     -7.62651855	     -3.76807742	      7.85131188
      3.50000000	      3.97065768	      0.02887929	    -33.82130369	      0.82871646	      0.89141308	      0.57611047	      5.92242576	     -5.23103917	      1.47852058	    -59.19755299	     13.20891843	     -9.32623002	     16.75703941	      2.14251650	    -11.42470863	    -23.73190190	      4.64035682	     -4.33816068	     -7.85540880	     -3.59420376	      7.51579622
      3.51000000	      3.88185282	     -0.13360400	    -33.83278564	      0.83411388	      0.89292975	      0.57819221	      6.78122606	     -5.08220351	      1.44625050	    -58.81756940	     14.32526691	    -10.82861670	     16.17295421	      2.10622568	    -11.33057922	    -23.44522803	      4.88143120	     -4.57198438	     -8.06639659	     -3.38832057	      7.18420711
      3.52000000	      3.78894460	     -0.30505664	    -33.82308337	      0.83935404	      0.89438670	      0.58023841	      7.54500926	     -4.89905866	      1.40979365	    -58.12983204	     15.32626078	    -12.07459588	     15.59362641	      2.05347257	    -11.23913034	    -23.14832344	      5.11830140	     -4.78899899	     -8.28000020	     -3.17346284	      6.83014743
      3.53000000	      3.69242673	     -0.47421222	    -33.80721069	      0.84444742	      0.89576168	      0.58226479	      8.21980845	     -4.70117630	      1.36646362	    -57.14407632	     16.21735933	    -13.08337576	     15.02554168	      1.98732457	    -11.18637823	    -22.84475409	      5.33937537	     -4.98304490	     -8.48576734	     -2.96134452	      6.47813535
      3.54000000	      3.60224659	     -0.64054200	    -33.78320151	      0.84940302	      0.89705047	      0.58426256	      8.79503993	     -4.50252128	      1.30545235	    -55.87386635	     16.98926057	    -13.79041986	     14.46495953	      1.91675634	    -11.15335347	    -22.54414070	      5.56991693	     -5.13944630	     -8.69220860	     -2.75525064	      6.09620486
      3.55000000	      3.50654059	     -0.77487686	    -33.77262367	      0.85424955	      0.89820780	      0.58625798	      9.30286550	     -4.34641681	      1.18946824	    -54.33811170	     17.70291839	    -14.44410690	     13.93740993	      1.85520517	    -11.18864268	    -22.24666386	      5.75055250	     -5.29643946	     -8.86180184	     -2.57812750	      5.78029935
      3.56000000	      3.41162034	     -0.92574334	    -33.73884362	      0.85899763	      0.89928061	      0.58822845	      9.69098137	     -4.19280134	      0.98108818	    -52.53230623	     18.27352839	    -14.66899281	     13.42472454	      1.77413352	    -11.19495977	    -21.98299920	      5.99249146	     -5.37861392	     -9.03488174	     -2.38414794	      5.40768226
      3.57000000	      3.32762180	     -1.05813257	    -33.70746320	      0.86366321	      0.90025986	      0.59018858	      9.97765875	     -4.08398085	      0.68500129	    -50.48169782	     18.80109465	    -14.85773716	     12.92549374	      1.70965102	    -11.21654228	    -21.72829691	      6.19416278	     -5.47200402	     -9.19562136	     -2.21158079	      5.06926336
      3.58000000	      3.24708477	     -1.18933556	    -33.67006343	      0.86824645	      0.90115492	      0.59216873	     10.15085591	     -3.99406277	      0.28241469	    -48.19553727	     19.25865116	    -14.94733593	     12.44501887	      1.64162420	    -11.21848231	    -21.50356624	      6.39695225	     -5.55767883	     -9.34389891	     -2.04595700	      4.73643156
      3.59000000	      3.17019623	     -1.32779226	    -33.61711088	      0.87276863	      0.90197898	      0.59416608	     10.19977633	     -3.91187725	     -0.24419418	    -45.68933101	     19.63684051	    -14.90762585	     11.98105751	      1.56367450	    -11.19494814	    -21.31552352	      6.61089585	     -5.63524553	     -9.48400148	     -1.87657541	      4.41518874
      3.60000000	      3.09295408	     -1.48272268	    -33.54399182	      0.87722187	      0.90273746	      0.59618800	     10.12165449	     -3.81001570	     -0.88325154	    -42.98808028	     19.91962866	    -14.70030987	     11.53699978	      1.46406351	    -11.14526692	    -21.17287075	      6.84970106	     -5.70411392	     -9.61919541	     -1.69314520	      4.10053673
      3.61000000	      3.04088366	     -1.65586759	    -33.45491384	      0.88162472	      0.90347610	      0.59824481	      9.89608633	     -3.69917541	     -1.64322100	    -40.12303497	     20.09344421	    -14.18717353	     11.07224348	      1.36027707	    -11.05740587	    -21.04848178	      7.09172535	     -5.78218424	     -9.77263675	     -1.51295951	      3.84212221
      3.62000000	      2.97911117	     -1.83584555	    -33.35461919	      0.88590859	      0.90412948	      0.60035906	      9.58005864	     -3.52469139	     -2.41920685	    -37.14943112	     20.15427103	    -13.27640656	     10.64457065	      1.22836025	    -10.97107174	    -20.97310024	      7.35609185	     -5.85617494	     -9.90735600	     -1.32442588	      3.55302529
      3.63000000	      2.88696528	     -2.03387716	    -33.24077337	      0.89004989	      0.90467813	      0.60251998	      9.20368701	     -3.25855728	     -3.20580418	    -34.12057249	     20.08333424	    -12.19034958	     10.27461621	      1.04784986	    -10.85389070	    -20.95902079	      7.66376222	     -5.91552027	    -10.01225315	     -1.10724318	      3.31862000
      3.64000000	      2.78270515	     -2.23228900	    -33.12976041	      0.89402671	      0.90512460	      0.60474432	      8.79243911	     -2.91470909	     -3.92177258	    -31.11649035	     19.89119310	    -10.92465888	      9.94663131	      0.84338067	    -10.72936079	    -20.98877203	      7.99834772	     -5.97045374	    -10.09456539	     -0.89312795	      3.13250233
      3.65000000	      2.66154638	     -2.41499277	    -33.03780112	      0.89780427	      0.90543976	      0.60703376	      8.39929383	     -2.50322448	     -4.49503986	    -28.22919836	     19.58434862	     -9.47022820	      9.67686757	      0.61930006	    -10.64153247	    -21.06472056	      8.33842741	     -6.02335084	    -10.14140660	     -0.69524515	      3.01056689
      3.66000000	      2.53775247	     -2.58144269	    -32.95549247	      0.90137663	      0.90563033	      0.60935516	      8.04065948	     -2.03928926	     -4.87674702	    -25.54064195	     19.23287991	     -8.09939159	      9.44502145	      0.40185294	    -10.50613297	    -21.16814096	      8.74368779	     -6.05392610	    -10.16958692	     -0.52042870	      2.94110706
      3.67000000	      2.39142035	     -2.71009273	    -32.92084654	      0.90468898	      0.90566902	      0.61175572	      7.79464216	     -1.54371571	     -5.01356647	    -23.15122903	     18.78580121	     -6.59589668	      9.28963801	      0.17004855	    -10.48430277	    -21.31711724	      9.07367167	     -6.08206868	    -10.14486372	     -0.38654205	      2.95513982
      3.68000000	      2.25557192	     -2.81083206	    -32.89790555	      0.90779325	      0.90560555	      0.61414613	      7.62683224	     -1.04888962	     -4.90061667	    -21.09481055	     18.30162226	     -5.23482608	      9.16684315	     -0.04073560	    -10.46490039	    -21.49258418	      9.44414837	     -6.07957047	    -10.10995696	     -0.28719347	      2.98233657
      3.69000000	      2.13328409	     -2.90114329	    -32.88980374	      0.91071153	      0.90547226	      0.61655257	      7.52751644	     -0.55955497	     -4.57266044	    -19.39666539	     17.81990293	     -4.05097453	      9.05685515	     -0.25069693	    -10.47660999	    -21.69017130	      9.85284392	     -6.04458402	    -10.07293116	     -0.21180698	      3.04317707
      3.70000000	      2.01638752	     -2.97283395	    -32.90707235	      0.91346227	      0.90529299	      0.61896365	      7.51180156	     -0.09378038	     -4.05806647	    -18.06586352	     17.27259899	     -2.97893927	      8.95264621	     -0.44819363	    -10.50409779	    -21.87341538	     10.20197941	     -5.98548030	    -10.01729761	     -0.15863998	      3.15722540
      3.71000000	      1.91902748	     -3.03518345	    -32.92939485	      0.91612268	      0.90511310	      0.62137834	      7.53416776	      0.33279558	     -3.43866522	    -17.06270563	     16.65380001	     -2.05135874	      8.82042919	     -0.62776367	    -10.53386900	    -22.01963956	     10.52217393	     -5.89270733	     -9.95475705	     -0.12512038	      3.29338355
      3.72000000	      1.85382057	     -3.09402532	    -32.95832040	      0.91868728	      0.90494160	      0.62380011	      7.56832657	      0.71612529	     -2.72844720	    -16.35736651	     15.99519540	     -1.34289887	      8.66251405	     -0.79438329	    -10.59403776	    -22.16504510	     10.84839110	     -5.76616222	     -9.90559069	     -0.11215626	      3.41694810
      3.73000000	      1.80148171	     -3.14734114	    -32.98496438	      0.92121852	      0.90477532	      0.62623690	      7.60785876	      1.05916056	     -1.99576036	    -15.89649829	     15.26661852	     -0.93910970	      8.48040300	     -0.95474112	    -10.69349074	    -22.27949119	     11.16928202	     -5.64452060	     -9.83829591	     -0.10549480	      3.51728257
      3.74000000	      1.78252094	     -3.18475858	    -33.01587848	      0.92369718	      0.90462828	      0.62866756	      7.64731526	      1.33649321	     -1.28709805	    -15.67097708	     14.46960214	     -0.66252188	      8.26369566	     -1.07176321	    -10.75012906	    -22.36479256	     11.45812174	     -5.51072147	     -9.77870505	     -0.13471727	      3.64383456
